<svg xmlns="http://www.w3.org/2000/svg" viewBox="0 0 1400 560" font-family="Georgia, 'Times New Roman', serif">
  <defs>
    <style>
      .bg { fill: #F5F1E8; }
      .card { fill: #FBF8F1; stroke: #1A1614; stroke-width: 1; }
      .core { fill: #1A1614; stroke: #C15F3C; stroke-width: 2; }
      .ink { fill: #1A1614; }
      .cream { fill: #F5F1E8; }
      .muted { fill: #6B5F4F; }
      .accent { fill: #C15F3C; }
      .rule { stroke: #1A1614; stroke-width: 0.75; }
      .hair { stroke: #C9C0B0; stroke-width: 0.75; }
      .wire { stroke: #1A1614; stroke-width: 1; fill: none; }
      .wire-accent { stroke: #C15F3C; stroke-width: 1.5; fill: none; }
      .mono { font-family: 'Menlo', 'Consolas', 'Courier New', monospace; }
      .sans { font-family: 'Helvetica Neue', 'Arial', sans-serif; letter-spacing: 0.12em; }
    </style>
    <marker id="arrow" viewBox="0 0 10 10" refX="9" refY="5" markerWidth="6" markerHeight="6" orient="auto-start-reverse">
      <path d="M 0 0 L 10 5 L 0 10 z" fill="#1A1614"/>
    </marker>
    <marker id="arrow-accent" viewBox="0 0 10 10" refX="9" refY="5" markerWidth="6" markerHeight="6" orient="auto-start-reverse">
      <path d="M 0 0 L 10 5 L 0 10 z" fill="#C15F3C"/>
    </marker>
  </defs>

  <rect class="bg" width="1400" height="560"/>

  <line class="rule" x1="40" y1="44" x2="1360" y2="44"/>
  <line class="hair" x1="40" y1="50" x2="1360" y2="50"/>
  <text class="ink sans" x="40" y="36" font-size="11">&#167; ARCHITECTURE &#183; MULTI-AGENT CLIENTS &#183; MEMWRIGHT CORE &#183; PLUGGABLE STORAGE</text>
  <text class="muted sans" x="1360" y="36" font-size="11" text-anchor="end">FIG. 01 &#183; MEMWRIGHT</text>

  <text class="accent sans" x="40" y="88" font-size="11">&#167; MULTI-AGENT CLIENTS</text>
  <text class="accent sans" x="520" y="88" font-size="11">&#167; MEMWRIGHT CORE</text>
  <text class="accent sans" x="1000" y="88" font-size="11">&#167; PLUGGABLE STORAGE</text>

  <g transform="translate(40,110)">
    <rect class="card" width="420" height="380" rx="2"/>
    <text class="ink" x="24" y="40" font-size="22" font-weight="700">Agent team</text>
    <text class="muted" x="24" y="62" font-size="12" font-style="italic">Orchestrator-worker &#183; planner-executor</text>

    <g transform="translate(24,86)">
      <rect class="card" x="0"   y="0"   width="180" height="40" rx="2"/>
      <text class="ink sans" x="14" y="25" font-size="11">ORCHESTRATOR</text>
      <rect class="card" x="192" y="0"   width="180" height="40" rx="2"/>
      <text class="ink sans" x="206" y="25" font-size="11">PLANNER</text>
      <rect class="card" x="0"   y="52"  width="180" height="40" rx="2"/>
      <text class="ink sans" x="14" y="77" font-size="11">EXECUTOR</text>
      <rect class="card" x="192" y="52"  width="180" height="40" rx="2"/>
      <text class="ink sans" x="206" y="77" font-size="11">RESEARCHER</text>
      <rect class="card" x="0"   y="104" width="180" height="40" rx="2"/>
      <text class="ink sans" x="14" y="129" font-size="11">REVIEWER</text>
      <rect class="card" x="192" y="104" width="180" height="40" rx="2"/>
      <text class="ink sans" x="206" y="129" font-size="11">MONITOR</text>
    </g>

    <line class="hair" x1="24" y1="262" x2="396" y2="262"/>
    <text class="muted sans" x="24" y="284" font-size="10">CONTEXT &#183; IDENTITY &#183; ROLE &#183; NAMESPACE &#183; PARENT &#183; BUDGET</text>

    <g transform="translate(24,302)">
      <rect class="card" x="0"   y="0" width="116" height="52" rx="2"/>
      <text class="ink mono" x="58" y="22" font-size="13" text-anchor="middle" font-weight="700">Python</text>
      <text class="muted" x="58" y="40" font-size="10" text-anchor="middle" font-style="italic">in-process</text>
      <rect class="card" x="128" y="0" width="116" height="52" rx="2"/>
      <text class="ink mono" x="186" y="22" font-size="13" text-anchor="middle" font-weight="700">REST</text>
      <text class="muted" x="186" y="40" font-size="10" text-anchor="middle" font-style="italic">any language</text>
      <rect class="card" x="256" y="0" width="116" height="52" rx="2"/>
      <text class="ink mono" x="314" y="22" font-size="13" text-anchor="middle" font-weight="700">MCP</text>
      <text class="muted" x="314" y="40" font-size="10" text-anchor="middle" font-style="italic">IDE agents</text>
    </g>
  </g>

  <g transform="translate(520,110)">
    <rect class="core" width="380" height="380" rx="2"/>
    <text class="cream sans" x="24" y="38" font-size="11">&#167; CORE &#183; agent_memory/</text>
    <text class="cream" x="24" y="78" font-size="28" font-weight="700">Memwright</text>
    <text class="cream" x="24" y="104" font-size="12" font-style="italic" opacity="0.8">The memory layer for agent teams</text>
    <line x1="24" y1="128" x2="356" y2="128" stroke="#C15F3C" stroke-width="0.5" opacity="0.6"/>

    <text class="accent sans" x="24" y="156" font-size="11">GOVERNANCE</text>
    <text class="cream" x="24" y="180" font-size="13">Namespace isolation &#183; RBAC</text>
    <text class="cream" x="24" y="200" font-size="13">Provenance &#183; Token budgets</text>
    <text class="cream" x="24" y="220" font-size="13">Write quotas &#183; Review flags</text>

    <text class="accent sans" x="24" y="256" font-size="11">RETRIEVAL &#183; 5-LAYER CASCADE</text>
    <text class="cream" x="24" y="280" font-size="13">01 &#183; Tag match</text>
    <text class="cream" x="24" y="298" font-size="13">02 &#183; Graph expansion (BFS)</text>
    <text class="cream" x="24" y="316" font-size="13">03 &#183; Vector search</text>
    <text class="cream" x="24" y="334" font-size="13">04 &#183; RRF fusion + PageRank</text>
    <text class="cream" x="24" y="352" font-size="13">05 &#183; MMR diversity + budget fit</text>

    <text class="cream sans" x="356" y="374" font-size="10" text-anchor="end" opacity="0.7">ZERO LLM IN THE RETRIEVAL PATH</text>
  </g>

  <g>
    <path class="wire" d="M 460 180 L 520 180" marker-end="url(#arrow)"/>
    <path class="wire" d="M 460 240 L 520 240" marker-end="url(#arrow)"/>
    <path class="wire" d="M 460 300 L 520 300" marker-end="url(#arrow)"/>
  </g>

  <g>
    <path class="wire-accent" d="M 900 200 L 1000 160" marker-end="url(#arrow-accent)"/>
    <path class="wire-accent" d="M 900 300 L 1000 300" marker-end="url(#arrow-accent)"/>
    <path class="wire-accent" d="M 900 400 L 1000 440" marker-end="url(#arrow-accent)"/>
  </g>

  <g transform="translate(1000,110)">
    <rect class="card" x="0" y="20"  width="360" height="110" rx="2"/>
    <text class="accent sans" x="20" y="46" font-size="11">01 &#183; DOCUMENT</text>
    <text class="ink" x="20" y="74" font-size="18" font-weight="700">Source of truth</text>
    <text class="muted" x="20" y="96"  font-size="11">SQLite &#183; PostgreSQL &#183; AlloyDB &#183; ArangoDB</text>
    <text class="muted" x="20" y="114" font-size="11">DynamoDB &#183; Cosmos DB</text>

    <rect class="card" x="0" y="150" width="360" height="110" rx="2"/>
    <text class="accent sans" x="20" y="176" font-size="11">02 &#183; VECTOR</text>
    <text class="ink" x="20" y="204" font-size="18" font-weight="700">Semantic search</text>
    <text class="muted" x="20" y="226" font-size="11">ChromaDB &#183; pgvector &#183; ScaNN &#183; ArangoDB</text>
    <text class="muted" x="20" y="244" font-size="11">OpenSearch Serverless &#183; Cosmos DiskANN</text>

    <rect class="card" x="0" y="280" width="360" height="110" rx="2"/>
    <text class="accent sans" x="20" y="306" font-size="11">03 &#183; GRAPH</text>
    <text class="ink" x="20" y="334" font-size="18" font-weight="700">Entities &amp; multi-hop</text>
    <text class="muted" x="20" y="356" font-size="11">NetworkX &#183; Apache AGE &#183; ArangoDB</text>
    <text class="muted" x="20" y="374" font-size="11">Neptune &#183; NetworkX-on-Cosmos</text>
  </g>

  <line class="hair" x1="40" y1="510" x2="1360" y2="510"/>
  <text class="muted sans" x="40" y="534" font-size="11">ONE API &#183; EVERY BACKEND &#183; <tspan class="ink">LIBRARY</tspan> &#183; <tspan class="ink">SIDECAR</tspan> &#183; <tspan class="ink">SHARED SERVICE</tspan></text>
  <text class="muted sans" x="1360" y="534" font-size="11" text-anchor="end">SELF-HOSTED &#183; DETERMINISTIC &#183; MIT</text>
</svg>
