<svg xmlns="http://www.w3.org/2000/svg" viewBox="0 0 900 520" font-family="'Caveat', 'Comic Sans MS', 'Virgil', cursive">
  <defs>
    <filter id="rough" x="-5%" y="-5%" width="110%" height="110%">
      <feTurbulence type="fractalNoise" baseFrequency="0.02" numOctaves="2" seed="4"/>
      <feDisplacementMap in="SourceGraphic" scale="2"/>
    </filter>
    <marker id="arrow" viewBox="0 0 10 10" refX="8" refY="5" markerWidth="10" markerHeight="10" orient="auto-start-reverse">
      <path d="M0,0 L10,5 L0,10 z" fill="#1b1b1f"/>
    </marker>
    <style>
      text { font-size: 22px; fill: #1b1b1f; }
      .lbl { font-size: 16px; fill: #4a4a52; }
      .title { font-size: 26px; fill: #1b1b1f; }
      .box { fill: #ffffff; stroke: #1b1b1f; stroke-width: 2.2; filter: url(#rough); }
      .agent { fill: #fde68a; }
      .core { fill: #fecaca; }
      .store { fill: #bfdbfe; }
      .interface { fill: #bbf7d0; }
      .line { stroke: #1b1b1f; stroke-width: 2; fill: none; filter: url(#rough); }
    </style>
  </defs>

  <g>
    <rect class="box agent" x="30" y="90" width="180" height="70" rx="10"/>
    <text x="120" y="132" text-anchor="middle">Agent A</text>
    <rect class="box agent" x="30" y="190" width="180" height="70" rx="10"/>
    <text x="120" y="232" text-anchor="middle">Agent B</text>
    <rect class="box agent" x="30" y="290" width="180" height="70" rx="10"/>
    <text x="120" y="332" text-anchor="middle">Agent C</text>
    <text x="120" y="70" text-anchor="middle" class="title">Multi-Agent System</text>
  </g>

  <path class="line" d="M 215 125 C 260 125, 290 225, 340 225" marker-end="url(#arrow)"/>
  <path class="line" d="M 215 225 L 340 225" marker-end="url(#arrow)"/>
  <path class="line" d="M 215 325 C 260 325, 290 225, 340 225" marker-end="url(#arrow)"/>

  <g>
    <rect class="box core" x="340" y="170" width="230" height="180" rx="14"/>
    <text x="455" y="205" text-anchor="middle" class="title">Memwright</text>
    <text x="455" y="240" text-anchor="middle" class="lbl">Namespace · RBAC</text>
    <text x="455" y="265" text-anchor="middle" class="lbl">Provenance · Budgets</text>
    <text x="455" y="300" text-anchor="middle" class="lbl">Ranked Retrieval</text>
    <text x="455" y="325" text-anchor="middle" class="lbl">(tag → graph → vector)</text>
  </g>

  <g>
    <rect class="box interface" x="340" y="80" width="70" height="50" rx="8"/>
    <text x="375" y="112" text-anchor="middle" class="lbl">Python</text>
    <rect class="box interface" x="420" y="80" width="70" height="50" rx="8"/>
    <text x="455" y="112" text-anchor="middle" class="lbl">REST</text>
    <rect class="box interface" x="500" y="80" width="70" height="50" rx="8"/>
    <text x="535" y="112" text-anchor="middle" class="lbl">MCP</text>
    <path class="line" d="M 375 130 L 375 170"/>
    <path class="line" d="M 455 130 L 455 170"/>
    <path class="line" d="M 535 130 L 535 170"/>
  </g>

  <path class="line" d="M 575 260 L 670 260" marker-end="url(#arrow)"/>

  <g>
    <text x="780" y="70" text-anchor="middle" class="title">Pluggable Storage</text>
    <rect class="box store" x="690" y="90" width="180" height="70" rx="10"/>
    <text x="780" y="125" text-anchor="middle">Document</text>
    <text x="780" y="148" text-anchor="middle" class="lbl">SQLite · Postgres · Arango</text>
    <rect class="box store" x="690" y="190" width="180" height="70" rx="10"/>
    <text x="780" y="225" text-anchor="middle">Vector</text>
    <text x="780" y="248" text-anchor="middle" class="lbl">Chroma · pgvector · Arango</text>
    <rect class="box store" x="690" y="290" width="180" height="70" rx="10"/>
    <text x="780" y="325" text-anchor="middle">Graph</text>
    <text x="780" y="348" text-anchor="middle" class="lbl">NetworkX · AGE · Arango</text>
  </g>

  <path class="line" d="M 670 260 C 680 260, 680 125, 690 125"/>
  <path class="line" d="M 670 260 L 690 225"/>
  <path class="line" d="M 670 260 C 680 260, 680 325, 690 325"/>

  <text x="450" y="470" text-anchor="middle" class="lbl">Run local · deploy as library, REST API, or MCP server</text>
</svg>
