<svg xmlns="http://www.w3.org/2000/svg" viewBox="0 0 1200 1000" font-family="'Segoe UI', system-ui, -apple-system, sans-serif">
  <defs>
    <linearGradient id="bgGrad" x1="0%" y1="0%" x2="100%" y2="100%">
      <stop offset="0%" style="stop-color:#0f172a"/>
      <stop offset="100%" style="stop-color:#1e293b"/>
    </linearGradient>
    <linearGradient id="brandGrad" x1="0%" y1="0%" x2="100%" y2="0%">
      <stop offset="0%" style="stop-color:#C15F3C"/>
      <stop offset="100%" style="stop-color:#e07a56"/>
    </linearGradient>
    <linearGradient id="orchGrad" x1="0%" y1="0%" x2="0%" y2="100%">
      <stop offset="0%" style="stop-color:#c2410c"/>
      <stop offset="100%" style="stop-color:#9a3412"/>
    </linearGradient>
    <linearGradient id="agentGrad" x1="0%" y1="0%" x2="0%" y2="100%">
      <stop offset="0%" style="stop-color:#059669"/>
      <stop offset="100%" style="stop-color:#047857"/>
    </linearGradient>
    <linearGradient id="ctxGrad" x1="0%" y1="0%" x2="0%" y2="100%">
      <stop offset="0%" style="stop-color:#7c3aed"/>
      <stop offset="100%" style="stop-color:#6d28d9"/>
    </linearGradient>
    <linearGradient id="roleGrad" x1="0%" y1="0%" x2="0%" y2="100%">
      <stop offset="0%" style="stop-color:#4338ca"/>
      <stop offset="100%" style="stop-color:#3730a3"/>
    </linearGradient>
    <linearGradient id="storeGrad" x1="0%" y1="0%" x2="0%" y2="100%">
      <stop offset="0%" style="stop-color:#1d4ed8"/>
      <stop offset="100%" style="stop-color:#1e40af"/>
    </linearGradient>
    <linearGradient id="cloudGrad" x1="0%" y1="0%" x2="0%" y2="100%">
      <stop offset="0%" style="stop-color:#0891b2"/>
      <stop offset="100%" style="stop-color:#0e7490"/>
    </linearGradient>
    <linearGradient id="distGrad" x1="0%" y1="0%" x2="0%" y2="100%">
      <stop offset="0%" style="stop-color:#854d0e"/>
      <stop offset="100%" style="stop-color:#713f12"/>
    </linearGradient>
    <filter id="shadow" x="-5%" y="-5%" width="110%" height="115%">
      <feDropShadow dx="0" dy="2" stdDeviation="4" flood-color="#000" flood-opacity="0.3"/>
    </filter>
    <filter id="brandGlow" x="-10%" y="-10%" width="120%" height="120%">
      <feGaussianBlur stdDeviation="6" result="blur"/>
      <feMerge><feMergeNode in="blur"/><feMergeNode in="SourceGraphic"/></feMerge>
    </filter>
    <marker id="arrowOrange" markerWidth="8" markerHeight="6" refX="8" refY="3" orient="auto">
      <path d="M0,0 L8,3 L0,6 Z" fill="#fb923c"/>
    </marker>
    <marker id="arrowGreen" markerWidth="8" markerHeight="6" refX="8" refY="3" orient="auto">
      <path d="M0,0 L8,3 L0,6 Z" fill="#4ade80"/>
    </marker>
    <marker id="arrowPurple" markerWidth="8" markerHeight="6" refX="8" refY="3" orient="auto">
      <path d="M0,0 L8,3 L0,6 Z" fill="#a78bfa"/>
    </marker>
    <marker id="arrowYellow" markerWidth="8" markerHeight="6" refX="8" refY="3" orient="auto">
      <path d="M0,0 L8,3 L0,6 Z" fill="#fbbf24"/>
    </marker>
    <marker id="arrowBlue" markerWidth="8" markerHeight="6" refX="8" refY="3" orient="auto">
      <path d="M0,0 L8,3 L0,6 Z" fill="#60a5fa"/>
    </marker>
  </defs>

  <!-- Background -->
  <rect width="1200" height="1000" fill="url(#bgGrad)" rx="12"/>

  <!-- ═══════════ BRAND HEADER ═══════════ -->
  <rect x="350" y="12" width="500" height="52" rx="10" fill="url(#brandGrad)" filter="url(#brandGlow)" opacity="0.95"/>
  <text x="600" y="36" text-anchor="middle" fill="#fff" font-size="26" font-weight="800" letter-spacing="4">MEMWRIGHT</text>
  <text x="600" y="54" text-anchor="middle" fill="#fde8e0" font-size="11" letter-spacing="1">Multi-Agent Memory Architecture</text>

  <!-- ═══════════════════════════════════════════════════════ -->
  <!-- SECTION 1: AGENT HIERARCHY                              -->
  <!-- ═══════════════════════════════════════════════════════ -->
  <text x="40" y="88" fill="#94a3b8" font-size="10" font-weight="600" letter-spacing="2">AGENT HIERARCHY — orchestrator spawns sub-agents via ctx.as_agent()</text>

  <!-- Orchestrator -->
  <rect x="380" y="98" width="440" height="60" rx="10" fill="url(#orchGrad)" filter="url(#shadow)"/>
  <rect x="382" y="100" width="436" height="56" rx="9" fill="none" stroke="#C15F3C" stroke-width="1.5" opacity="0.5"/>
  <text x="600" y="122" text-anchor="middle" fill="#fff" font-size="14" font-weight="700">Orchestrator</text>
  <text x="600" y="139" text-anchor="middle" fill="#fed7aa" font-size="10">role: ORCHESTRATOR · creates root AgentContext · namespace: "project:acme"</text>
  <text x="600" y="153" text-anchor="middle" fill="#fdba74" font-size="9">token_budget: 20000 · max_writes_per_agent: 100</text>

  <!-- as_agent() arrows -->
  <line x1="460" y1="158" x2="175" y2="195" stroke="#fb923c" stroke-width="1.5" marker-end="url(#arrowOrange)"/>
  <line x1="530" y1="158" x2="460" y2="195" stroke="#fb923c" stroke-width="1.5" marker-end="url(#arrowOrange)"/>
  <line x1="670" y1="158" x2="740" y2="195" stroke="#fb923c" stroke-width="1.5" marker-end="url(#arrowOrange)"/>
  <line x1="740" y1="158" x2="1020" y2="195" stroke="#fb923c" stroke-width="1.5" marker-end="url(#arrowOrange)"/>

  <text x="300" y="180" text-anchor="middle" fill="#fdba74" font-size="8" font-style="italic">ctx.as_agent("planner", role=PLANNER)</text>
  <text x="870" y="180" text-anchor="middle" fill="#fdba74" font-size="8" font-style="italic">as_agent("researcher", read_only=True)</text>

  <!-- Sub-agents -->
  <rect x="55" y="198" width="230" height="55" rx="8" fill="url(#agentGrad)" filter="url(#shadow)"/>
  <text x="170" y="220" text-anchor="middle" fill="#fff" font-size="12" font-weight="700">Planner</text>
  <text x="170" y="236" text-anchor="middle" fill="#d1fae5" font-size="9">PLANNER · budget: 5000 · read + write</text>
  <text x="170" y="248" text-anchor="middle" fill="#a7f3d0" font-size="8">Architecture decisions, planning</text>

  <rect x="340" y="198" width="230" height="55" rx="8" fill="url(#agentGrad)" filter="url(#shadow)"/>
  <text x="455" y="220" text-anchor="middle" fill="#fff" font-size="12" font-weight="700">Executor</text>
  <text x="455" y="236" text-anchor="middle" fill="#d1fae5" font-size="9">EXECUTOR · budget: 8000 · read + write</text>
  <text x="455" y="248" text-anchor="middle" fill="#a7f3d0" font-size="8">Implementation, code changes</text>

  <rect x="625" y="198" width="230" height="55" rx="8" fill="url(#agentGrad)" filter="url(#shadow)"/>
  <text x="740" y="220" text-anchor="middle" fill="#fff" font-size="12" font-weight="700">Reviewer</text>
  <text x="740" y="236" text-anchor="middle" fill="#d1fae5" font-size="9">REVIEWER · budget: 3000 · read + write</text>
  <text x="740" y="248" text-anchor="middle" fill="#a7f3d0" font-size="8">Code review, quality assurance</text>

  <rect x="905" y="198" width="250" height="55" rx="8" fill="#065f46" filter="url(#shadow)" stroke="#f87171" stroke-width="1.5" stroke-dasharray="4,3"/>
  <text x="1030" y="220" text-anchor="middle" fill="#fff" font-size="12" font-weight="700">Researcher</text>
  <text x="1030" y="236" text-anchor="middle" fill="#fca5a5" font-size="9">RESEARCHER · read_only: true</text>
  <text x="1030" y="248" text-anchor="middle" fill="#fca5a5" font-size="8">Can recall() only — no add_memory()</text>

  <!-- ═══════════════════════════════════════════════════════ -->
  <!-- SECTION 2: AGENTCONTEXT (shared state)                  -->
  <!-- ═══════════════════════════════════════════════════════ -->
  <text x="40" y="280" fill="#94a3b8" font-size="10" font-weight="600" letter-spacing="2">SHARED CONTEXT — each agent gets a child context (immutable, returns new instance)</text>

  <rect x="40" y="292" width="1120" height="130" rx="12" fill="url(#ctxGrad)" filter="url(#shadow)" opacity="0.95"/>
  <text x="600" y="312" text-anchor="middle" fill="#fff" font-size="13" font-weight="700">AgentContext</text>

  <!-- Identity -->
  <rect x="60" y="320" width="165" height="90" rx="6" fill="#5b21b6" opacity="0.7"/>
  <text x="142" y="337" fill="#ede9fe" font-size="10" font-weight="700">Identity</text>
  <text x="70" y="354" fill="#e0e7ff" font-size="8">agent_id: "planner-01"</text>
  <text x="70" y="368" fill="#e0e7ff" font-size="8">session_id: "sess-abc123"</text>
  <text x="70" y="382" fill="#e0e7ff" font-size="8">namespace: "project:acme"</text>
  <text x="70" y="396" fill="#e0e7ff" font-size="8">role: PLANNER</text>

  <!-- Provenance -->
  <rect x="240" y="320" width="185" height="90" rx="6" fill="#5b21b6" opacity="0.7"/>
  <text x="332" y="337" fill="#ede9fe" font-size="10" font-weight="700">Provenance</text>
  <text x="250" y="354" fill="#e0e7ff" font-size="8">agent_trail: [orch, planner]</text>
  <text x="250" y="368" fill="#e0e7ff" font-size="8">parent_agent_id: "orch"</text>
  <text x="250" y="382" fill="#e0e7ff" font-size="8">memories_written: [id1, id2]</text>
  <text x="250" y="396" fill="#e0e7ff" font-size="8">entities_discovered: ["Python"]</text>

  <!-- Token Budget -->
  <rect x="440" y="320" width="155" height="90" rx="6" fill="#5b21b6" opacity="0.7"/>
  <text x="517" y="337" fill="#ede9fe" font-size="10" font-weight="700">Token Budget</text>
  <text x="450" y="354" fill="#e0e7ff" font-size="8">budget: 20000</text>
  <text x="450" y="368" fill="#e0e7ff" font-size="8">used: 3200</text>
  <text x="450" y="382" fill="#e0e7ff" font-size="8">remaining: 16800</text>
  <text x="450" y="396" fill="#e0e7ff" font-size="8">Tracked per recall()</text>

  <!-- Governance -->
  <rect x="610" y="320" width="180" height="90" rx="6" fill="#5b21b6" opacity="0.7"/>
  <text x="700" y="337" fill="#ede9fe" font-size="10" font-weight="700">Governance</text>
  <text x="620" y="354" fill="#e0e7ff" font-size="8">visibility: PUBLIC|TEAM|PRIVATE</text>
  <text x="620" y="368" fill="#e0e7ff" font-size="8">read_only: false</text>
  <text x="620" y="382" fill="#e0e7ff" font-size="8">max_writes_per_agent: 100</text>
  <text x="620" y="396" fill="#e0e7ff" font-size="8">compliance_tags: ["SOC2"]</text>

  <!-- Scratchpad + Cache -->
  <rect x="805" y="320" width="170" height="90" rx="6" fill="#5b21b6" opacity="0.7"/>
  <text x="890" y="337" fill="#ede9fe" font-size="10" font-weight="700">Shared State</text>
  <text x="815" y="354" fill="#e0e7ff" font-size="8">scratchpad: {key: value}</text>
  <text x="815" y="368" fill="#e0e7ff" font-size="8">  inter-agent data passing</text>
  <text x="815" y="382" fill="#e0e7ff" font-size="8">_recall_cache: {q: results}</text>
  <text x="815" y="396" fill="#e0e7ff" font-size="8">  dedup within session</text>

  <!-- Write enrichment -->
  <rect x="990" y="320" width="155" height="90" rx="6" fill="#4c1d95" opacity="0.7" stroke="#C15F3C" stroke-width="1"/>
  <text x="1067" y="337" fill="#C15F3C" font-size="10" font-weight="700">Auto-Enrichment</text>
  <text x="1000" y="354" fill="#e0e7ff" font-size="8">Every add_memory() injects:</text>
  <text x="1000" y="368" fill="#e0e7ff" font-size="8">  _agent_id</text>
  <text x="1000" y="382" fill="#e0e7ff" font-size="8">  _session_id, _role</text>
  <text x="1000" y="396" fill="#e0e7ff" font-size="8">  _namespace, _visibility</text>

  <!-- ═══════════════════════════════════════════════════════ -->
  <!-- SECTION 3: WRITE + READ FLOW                            -->
  <!-- ═══════════════════════════════════════════════════════ -->
  <text x="40" y="448" fill="#94a3b8" font-size="10" font-weight="600" letter-spacing="2">DATA FLOW — how memories are written and recalled</text>

  <!-- WRITE PATH -->
  <rect x="40" y="460" width="540" height="100" rx="10" fill="#1e1b4b" filter="url(#shadow)" opacity="0.95"/>
  <text x="310" y="480" text-anchor="middle" fill="#C15F3C" font-size="12" font-weight="800">WRITE PATH: ctx.add_memory(content)</text>

  <rect x="60" y="490" width="90" height="28" rx="5" fill="#312e81"/>
  <text x="105" y="509" text-anchor="middle" fill="#e0e7ff" font-size="8" font-weight="600">read_only?</text>
  <line x1="150" y1="504" x2="162" y2="504" stroke="#a78bfa" stroke-width="1" marker-end="url(#arrowPurple)"/>

  <rect x="162" y="490" width="80" height="28" rx="5" fill="#312e81"/>
  <text x="202" y="509" text-anchor="middle" fill="#e0e7ff" font-size="8" font-weight="600">write quota</text>
  <line x1="242" y1="504" x2="254" y2="504" stroke="#a78bfa" stroke-width="1" marker-end="url(#arrowPurple)"/>

  <rect x="254" y="490" width="80" height="28" rx="5" fill="#312e81"/>
  <text x="294" y="509" text-anchor="middle" fill="#e0e7ff" font-size="8" font-weight="600">enrich meta</text>
  <line x1="334" y1="504" x2="346" y2="504" stroke="#a78bfa" stroke-width="1" marker-end="url(#arrowPurple)"/>

  <rect x="346" y="490" width="70" height="28" rx="5" fill="#312e81"/>
  <text x="381" y="509" text-anchor="middle" fill="#e0e7ff" font-size="8" font-weight="600">dedup</text>
  <line x1="416" y1="504" x2="428" y2="504" stroke="#a78bfa" stroke-width="1" marker-end="url(#arrowPurple)"/>

  <rect x="428" y="490" width="70" height="28" rx="5" fill="#312e81"/>
  <text x="463" y="509" text-anchor="middle" fill="#e0e7ff" font-size="8" font-weight="600">contradict?</text>
  <line x1="498" y1="504" x2="510" y2="504" stroke="#a78bfa" stroke-width="1" marker-end="url(#arrowPurple)"/>

  <rect x="510" y="490" width="55" height="28" rx="5" fill="#C15F3C"/>
  <text x="537" y="509" text-anchor="middle" fill="#fff" font-size="8" font-weight="700">STORE</text>

  <text x="310" y="545" text-anchor="middle" fill="#a5b4fc" font-size="8">store → DocumentStore.insert() · VectorStore.add() · GraphStore.add_entity()</text>

  <!-- READ PATH -->
  <rect x="610" y="460" width="550" height="100" rx="10" fill="#1e1b4b" filter="url(#shadow)" opacity="0.95"/>
  <text x="885" y="480" text-anchor="middle" fill="#C15F3C" font-size="12" font-weight="800">READ PATH: ctx.recall(query, budget)</text>

  <rect x="630" y="490" width="70" height="28" rx="5" fill="#312e81"/>
  <text x="665" y="509" text-anchor="middle" fill="#e0e7ff" font-size="8" font-weight="600">cache hit?</text>
  <line x1="700" y1="504" x2="712" y2="504" stroke="#a78bfa" stroke-width="1" marker-end="url(#arrowPurple)"/>

  <rect x="712" y="490" width="80" height="28" rx="5" fill="#312e81"/>
  <text x="752" y="509" text-anchor="middle" fill="#e0e7ff" font-size="8" font-weight="600">check budget</text>
  <line x1="792" y1="504" x2="804" y2="504" stroke="#a78bfa" stroke-width="1" marker-end="url(#arrowPurple)"/>

  <rect x="804" y="490" width="90" height="28" rx="5" fill="#C15F3C"/>
  <text x="849" y="509" text-anchor="middle" fill="#fff" font-size="8" font-weight="700">3-LAYER</text>
  <line x1="894" y1="504" x2="906" y2="504" stroke="#a78bfa" stroke-width="1" marker-end="url(#arrowPurple)"/>

  <rect x="906" y="490" width="70" height="28" rx="5" fill="#312e81"/>
  <text x="941" y="509" text-anchor="middle" fill="#e0e7ff" font-size="8" font-weight="600">score + rank</text>
  <line x1="976" y1="504" x2="988" y2="504" stroke="#a78bfa" stroke-width="1" marker-end="url(#arrowPurple)"/>

  <rect x="988" y="490" width="65" height="28" rx="5" fill="#312e81"/>
  <text x="1020" y="509" text-anchor="middle" fill="#e0e7ff" font-size="8" font-weight="600">fit budget</text>
  <line x1="1053" y1="504" x2="1065" y2="504" stroke="#a78bfa" stroke-width="1" marker-end="url(#arrowPurple)"/>

  <rect x="1065" y="490" width="80" height="28" rx="5" fill="#312e81"/>
  <text x="1105" y="509" text-anchor="middle" fill="#e0e7ff" font-size="8" font-weight="600">track tokens</text>

  <text x="885" y="545" text-anchor="middle" fill="#a5b4fc" font-size="8">3-layer = Tag(DocumentStore) + BFS(GraphStore) + Vector(VectorStore) → RRF → MMR → budget fit</text>

  <!-- ═══════════════════════════════════════════════════════ -->
  <!-- SECTION 4: NAMESPACE ISOLATION                          -->
  <!-- ═══════════════════════════════════════════════════════ -->
  <text x="40" y="590" fill="#94a3b8" font-size="10" font-weight="600" letter-spacing="2">NAMESPACE ISOLATION — memories scoped per namespace, same physical store</text>

  <rect x="40" y="602" width="340" height="120" rx="10" fill="#164e63" filter="url(#shadow)" opacity="0.95"/>
  <text x="210" y="622" text-anchor="middle" fill="#C15F3C" font-size="11" font-weight="800">namespace: "project:acme"</text>
  <rect x="60" y="632" width="300" height="18" rx="3" fill="#0e7490" opacity="0.6"/>
  <text x="210" y="645" text-anchor="middle" fill="#cffafe" font-size="8">"Architecture: event sourcing" [planner] confidence: 1.0</text>
  <rect x="60" y="654" width="300" height="18" rx="3" fill="#0e7490" opacity="0.6"/>
  <text x="210" y="667" text-anchor="middle" fill="#cffafe" font-size="8">"Deploy to AWS Lambda" [executor] confidence: 0.95</text>
  <rect x="60" y="676" width="300" height="18" rx="3" fill="#0e7490" opacity="0.6"/>
  <text x="210" y="689" text-anchor="middle" fill="#cffafe" font-size="8">"Code review: 3 issues found" [reviewer] confidence: 1.0</text>
  <rect x="60" y="698" width="300" height="18" rx="3" fill="#155e75" opacity="0.6"/>
  <text x="210" y="711" text-anchor="middle" fill="#67e8f9" font-size="8">"User prefers Python over Java" [planner] superseded: false</text>

  <rect x="420" y="602" width="340" height="120" rx="10" fill="#164e63" filter="url(#shadow)" opacity="0.95"/>
  <text x="590" y="622" text-anchor="middle" fill="#C15F3C" font-size="11" font-weight="800">namespace: "project:bolt"</text>
  <rect x="440" y="632" width="300" height="18" rx="3" fill="#0e7490" opacity="0.6"/>
  <text x="590" y="645" text-anchor="middle" fill="#cffafe" font-size="8">"Use Rust for core engine" [planner] confidence: 1.0</text>
  <rect x="440" y="654" width="300" height="18" rx="3" fill="#0e7490" opacity="0.6"/>
  <text x="590" y="667" text-anchor="middle" fill="#cffafe" font-size="8">"Database: PostgreSQL" [executor] confidence: 1.0</text>
  <rect x="440" y="676" width="300" height="18" rx="3" fill="#0e7490" opacity="0.6"/>
  <text x="590" y="689" text-anchor="middle" fill="#cffafe" font-size="8">"Security audit: passed" [reviewer] confidence: 1.0</text>

  <rect x="800" y="602" width="360" height="120" rx="10" fill="#164e63" filter="url(#shadow)" opacity="0.95"/>
  <text x="980" y="622" text-anchor="middle" fill="#C15F3C" font-size="11" font-weight="800">namespace: "user:john"</text>
  <rect x="820" y="632" width="320" height="18" rx="3" fill="#0e7490" opacity="0.6"/>
  <text x="980" y="645" text-anchor="middle" fill="#cffafe" font-size="8">"Works at Acme Corp" [career] entity: "Acme Corp"</text>
  <rect x="820" y="654" width="320" height="18" rx="3" fill="#0e7490" opacity="0.6"/>
  <text x="980" y="667" text-anchor="middle" fill="#cffafe" font-size="8">"Expert in distributed systems" [technical]</text>
  <rect x="820" y="676" width="320" height="18" rx="3" fill="#155e75" opacity="0.4" stroke="#f87171" stroke-width="1" stroke-dasharray="3,2"/>
  <text x="980" y="689" text-anchor="middle" fill="#fca5a5" font-size="8">"Works at OldCo" [career] status: superseded</text>

  <!-- Isolation walls -->
  <line x1="400" y1="602" x2="400" y2="722" stroke="#f87171" stroke-width="2" stroke-dasharray="6,3" opacity="0.6"/>
  <line x1="780" y1="602" x2="780" y2="722" stroke="#f87171" stroke-width="2" stroke-dasharray="6,3" opacity="0.6"/>

  <!-- ═══════════════════════════════════════════════════════ -->
  <!-- SECTION 5: STORAGE BOUNDARY                             -->
  <!-- ═══════════════════════════════════════════════════════ -->
  <text x="40" y="755" fill="#C15F3C" font-size="12" font-weight="800" letter-spacing="2">STORAGE BOUNDARY</text>
  <text x="230" y="755" fill="#94a3b8" font-size="10">— all namespaces live in same physical store, filtered at query time</text>
  <line x1="40" y1="763" x2="1160" y2="763" stroke="#C15F3C" stroke-width="2" stroke-dasharray="8,4" opacity="0.7"/>

  <!-- 3 Abstract Roles -->
  <rect x="40" y="775" width="340" height="48" rx="6" fill="url(#roleGrad)" filter="url(#shadow)"/>
  <text x="210" y="796" text-anchor="middle" fill="#fff" font-size="12" font-weight="700">DocumentStore</text>
  <text x="210" y="812" text-anchor="middle" fill="#a5b4fc" font-size="9">Source of truth. Required.</text>

  <rect x="410" y="775" width="340" height="48" rx="6" fill="url(#roleGrad)" filter="url(#shadow)"/>
  <text x="580" y="796" text-anchor="middle" fill="#fff" font-size="12" font-weight="700">VectorStore</text>
  <text x="580" y="812" text-anchor="middle" fill="#a5b4fc" font-size="9">Semantic search. Optional.</text>

  <rect x="780" y="775" width="340" height="48" rx="6" fill="url(#roleGrad)" filter="url(#shadow)"/>
  <text x="950" y="796" text-anchor="middle" fill="#fff" font-size="12" font-weight="700">GraphStore</text>
  <text x="950" y="812" text-anchor="middle" fill="#a5b4fc" font-size="9">Entity relationships. Optional.</text>

  <!-- Namespace arrows down to roles -->
  <line x1="210" y1="722" x2="210" y2="775" stroke="#22d3ee" stroke-width="1" stroke-dasharray="3,3" opacity="0.4"/>
  <line x1="590" y1="722" x2="580" y2="775" stroke="#22d3ee" stroke-width="1" stroke-dasharray="3,3" opacity="0.4"/>
  <line x1="980" y1="722" x2="950" y2="775" stroke="#22d3ee" stroke-width="1" stroke-dasharray="3,3" opacity="0.4"/>

  <!-- ═══════════════════════════════════════════════════════ -->
  <!-- LOCAL vs CLOUD                                          -->
  <!-- ═══════════════════════════════════════════════════════ -->

  <!-- LOCAL -->
  <text x="55" y="845" fill="#60a5fa" font-size="9" font-weight="600">LOCAL: 3 systems, 1 role each</text>
  <rect x="40" y="852" width="130" height="35" rx="5" fill="url(#storeGrad)" filter="url(#shadow)" opacity="0.9"/>
  <text x="105" y="875" text-anchor="middle" fill="#fff" font-size="10" font-weight="600">SQLite</text>
  <rect x="180" y="852" width="130" height="35" rx="5" fill="url(#storeGrad)" filter="url(#shadow)" opacity="0.9"/>
  <text x="245" y="875" text-anchor="middle" fill="#fff" font-size="10" font-weight="600">ChromaDB</text>
  <rect x="320" y="852" width="130" height="35" rx="5" fill="url(#storeGrad)" filter="url(#shadow)" opacity="0.9"/>
  <text x="385" y="875" text-anchor="middle" fill="#fff" font-size="10" font-weight="600">NetworkX</text>

  <!-- CLOUD -->
  <text x="500" y="845" fill="#22d3ee" font-size="9" font-weight="600">CLOUD: 1 system fills all 3 roles</text>
  <rect x="490" y="852" width="120" height="35" rx="5" fill="url(#cloudGrad)" filter="url(#shadow)" opacity="0.9"/>
  <text x="550" y="875" text-anchor="middle" fill="#fff" font-size="10" font-weight="600">PostgreSQL</text>
  <rect x="620" y="852" width="120" height="35" rx="5" fill="url(#cloudGrad)" filter="url(#shadow)" opacity="0.9"/>
  <text x="680" y="875" text-anchor="middle" fill="#fff" font-size="10" font-weight="600">ArangoDB</text>
  <rect x="750" y="852" width="80" height="35" rx="5" fill="url(#cloudGrad)" filter="url(#shadow)" opacity="0.9"/>
  <text x="790" y="875" text-anchor="middle" fill="#fff" font-size="10" font-weight="600">AWS</text>
  <rect x="840" y="852" width="80" height="35" rx="5" fill="url(#cloudGrad)" filter="url(#shadow)" opacity="0.9"/>
  <text x="880" y="875" text-anchor="middle" fill="#fff" font-size="10" font-weight="600">Azure</text>
  <rect x="930" y="852" width="80" height="35" rx="5" fill="url(#cloudGrad)" filter="url(#shadow)" opacity="0.9"/>
  <text x="970" y="875" text-anchor="middle" fill="#fff" font-size="10" font-weight="600">GCP</text>

  <!-- ═══════════════════════════════════════════════════════ -->
  <!-- SECTION 6: DISTRIBUTED MODE                             -->
  <!-- ═══════════════════════════════════════════════════════ -->
  <text x="40" y="915" fill="#94a3b8" font-size="10" font-weight="600" letter-spacing="2">DISTRIBUTED MODE — remote agents use MemoryClient → HTTP → Memwright API → same storage roles</text>

  <rect x="40" y="927" width="1120" height="58" rx="10" fill="url(#distGrad)" filter="url(#shadow)" opacity="0.9"/>

  <rect x="60" y="938" width="130" height="36" rx="6" fill="#92400e" opacity="0.8"/>
  <text x="125" y="955" text-anchor="middle" fill="#fde68a" font-size="9" font-weight="600">Agent (embedded)</text>
  <text x="125" y="968" text-anchor="middle" fill="#fef3c7" font-size="8">AgentMemory (local)</text>

  <rect x="220" y="938" width="130" height="36" rx="6" fill="#92400e" opacity="0.8"/>
  <text x="285" y="955" text-anchor="middle" fill="#fde68a" font-size="9" font-weight="600">Agent (remote)</text>
  <text x="285" y="968" text-anchor="middle" fill="#fef3c7" font-size="8">MemoryClient</text>

  <rect x="380" y="938" width="130" height="36" rx="6" fill="#92400e" opacity="0.8"/>
  <text x="445" y="955" text-anchor="middle" fill="#fde68a" font-size="9" font-weight="600">Agent (remote)</text>
  <text x="445" y="968" text-anchor="middle" fill="#fef3c7" font-size="8">MemoryClient</text>

  <line x1="350" y1="956" x2="538" y2="956" stroke="#fbbf24" stroke-width="1.5" stroke-dasharray="4,3"/>
  <line x1="510" y1="956" x2="538" y2="956" stroke="#fbbf24" stroke-width="1.5" marker-end="url(#arrowYellow)"/>
  <text x="465" y="948" fill="#fbbf24" font-size="7" font-style="italic">HTTP</text>

  <rect x="540" y="935" width="180" height="42" rx="8" fill="#78350f" stroke="#C15F3C" stroke-width="1.5"/>
  <text x="630" y="955" text-anchor="middle" fill="#C15F3C" font-size="11" font-weight="800">Memwright API</text>
  <text x="630" y="970" text-anchor="middle" fill="#fef3c7" font-size="8">Starlette ASGI · Lambda / Cloud Run</text>

  <line x1="720" y1="956" x2="745" y2="956" stroke="#fbbf24" stroke-width="1.5" marker-end="url(#arrowYellow)"/>

  <rect x="747" y="938" width="150" height="36" rx="6" fill="#78350f"/>
  <text x="822" y="955" text-anchor="middle" fill="#C15F3C" font-size="10" font-weight="700">Memwright Engine</text>
  <text x="822" y="968" text-anchor="middle" fill="#fef3c7" font-size="8">Same 3 abstract roles</text>

  <line x1="897" y1="956" x2="920" y2="956" stroke="#fbbf24" stroke-width="1.5" marker-end="url(#arrowYellow)"/>

  <rect x="922" y="938" width="220" height="36" rx="6" fill="#713f12" opacity="0.7"/>
  <text x="1032" y="955" text-anchor="middle" fill="#fde68a" font-size="9" font-weight="600">Cloud DB (fills all 3 roles)</text>
  <text x="1032" y="968" text-anchor="middle" fill="#fef3c7" font-size="8">ArangoDB / PostgreSQL / Cosmos DB</text>

</svg>