<svg xmlns="http://www.w3.org/2000/svg" viewBox="0 0 1400 880" font-family="Georgia, 'Times New Roman', serif">
  <defs>
    <marker id="arr" viewBox="0 0 10 10" refX="8" refY="5" markerWidth="9" markerHeight="9" orient="auto-start-reverse">
      <path d="M0,0 L10,5 L0,10 z" fill="#1A1614"/>
    </marker>
    <marker id="arr-accent" viewBox="0 0 10 10" refX="8" refY="5" markerWidth="9" markerHeight="9" orient="auto-start-reverse">
      <path d="M0,0 L10,5 L0,10 z" fill="#C15F3C"/>
    </marker>
    <style>
      .bg { fill: #F5F1E8; }
      .card { fill: #FBF8F1; stroke: #1A1614; stroke-width: 1; }
      .ink { fill: #1A1614; }
      .muted { fill: #6B5F4F; }
      .accent { fill: #C15F3C; }
      .rule { stroke: #1A1614; stroke-width: 0.75; }
      .hair { stroke: #C9C0B0; stroke-width: 0.75; }
      .flow { stroke: #1A1614; stroke-width: 1.25; fill: none; }
      .flow-accent { stroke: #C15F3C; stroke-width: 1.25; stroke-dasharray: 4 3; fill: none; }
      .mono { font-family: 'Menlo', 'Consolas', 'Courier New', monospace; }
      .sans { font-family: 'Helvetica Neue', 'Arial', sans-serif; letter-spacing: 0.12em; }
      .sect { font-size: 11px; letter-spacing: 0.2em; }
      .title { font-size: 22px; font-weight: 700; }
      .body { font-size: 13px; }
      .tag { font-size: 10px; letter-spacing: 0.12em; }
      .stage { font-size: 10px; letter-spacing: 0.25em; }
    </style>
  </defs>

  <!-- Paper -->
  <rect class="bg" width="1400" height="880"/>

  <!-- Masthead -->
  <line class="rule" x1="40" y1="44" x2="1360" y2="44"/>
  <line class="hair" x1="40" y1="50" x2="1360" y2="50"/>
  <text class="ink sans sect" x="40" y="36">&#167; HIGH-LEVEL ARCHITECTURE &#183; RETRIEVAL PIPELINE &#183; SEMANTIC-FIRST &#183; ZERO INFERENCE CALLS</text>
  <text class="muted sans sect" x="1360" y="36" text-anchor="end">FIG. 03 &#183; ATTESTOR</text>

  <!-- Input -->
  <text class="muted sans tag" x="700" y="84" text-anchor="middle">AGENT CALL</text>
  <text class="ink mono" x="700" y="114" text-anchor="middle" font-size="18">mem.recall(query, budget=2000)</text>
  <line class="flow" x1="700" y1="128" x2="700" y2="160" marker-end="url(#arr)"/>

  <!-- Stage A label -->
  <text class="muted sans stage" x="40" y="186">STAGE A &#183; CANDIDATE GENERATION</text>
  <line class="hair" x1="40" y1="192" x2="1360" y2="192"/>

  <!-- Card 01 — Vector Top-K -->
  <g transform="translate(80,210)">
    <rect class="card" width="360" height="200" rx="2"/>
    <text class="accent" x="20" y="80" font-size="64" font-family="Georgia, serif">01</text>
    <line class="hair" x1="20" y1="96" x2="340" y2="96"/>
    <text class="muted sans tag" x="20" y="116">STEP &#183; VECTOR TOP-K</text>
    <text class="ink title" x="20" y="144">Vector search</text>
    <text class="muted mono" x="20" y="164" font-size="11">pgvector &#183; cosine &#183; k=50</text>
    <text class="ink body" x="20" y="186">Embed query, fetch the 50 nearest</text>
  </g>
  <text class="ink body" x="100" y="430">memories. Local Ollama bge-m3 by default.</text>

  <!-- Card 02 — Graph Narrow -->
  <g transform="translate(520,210)">
    <rect class="card" width="360" height="200" rx="2"/>
    <text class="accent" x="20" y="80" font-size="64" font-family="Georgia, serif">02</text>
    <line class="hair" x1="20" y1="96" x2="340" y2="96"/>
    <text class="muted sans tag" x="20" y="116">STEP &#183; GRAPH NARROW</text>
    <text class="ink title" x="20" y="144">Graph affinity</text>
    <text class="muted mono" x="20" y="164" font-size="11">Neo4j + GDS &#183; BFS depth &#8804; 2</text>
    <text class="ink body" x="20" y="186">Boost candidates whose entity is near</text>
  </g>
  <text class="ink body" x="540" y="430">the question entities by hop distance.</text>

  <!-- Card 03 — Triples Inject -->
  <g transform="translate(960,210)">
    <rect class="card" width="360" height="200" rx="2"/>
    <text class="accent" x="20" y="80" font-size="64" font-family="Georgia, serif">03</text>
    <line class="hair" x1="20" y1="96" x2="340" y2="96"/>
    <text class="muted sans tag" x="20" y="116">STEP &#183; TRIPLES INJECT</text>
    <text class="ink title" x="20" y="144">Typed-edge facts</text>
    <text class="muted mono" x="20" y="164" font-size="11">uses &#183; authored-by &#183; supersedes</text>
    <text class="ink body" x="20" y="186">Inject relation triples as synthetic</text>
  </g>
  <text class="ink body" x="980" y="430">memories so reasoners see the graph.</text>

  <!-- Optional BM25 lane note -->
  <line class="flow-accent" x1="260" y1="448" x2="260" y2="478"/>
  <text class="accent sans tag" x="280" y="468">OPTIONAL BM25 / FTS LANE &#8594; FUSED VIA RRF k=60</text>

  <!-- Sequence flow within Stage A -->
  <line class="flow" x1="440" y1="310" x2="520" y2="310" marker-end="url(#arr)"/>
  <line class="flow" x1="880" y1="310" x2="960" y2="310" marker-end="url(#arr)"/>

  <!-- Bridge to Stage B -->
  <line class="flow" x1="700" y1="468" x2="700" y2="510" marker-end="url(#arr)"/>

  <!-- Stage B label -->
  <text class="muted sans stage" x="40" y="536">STAGE B &#183; RANK &#183; DIVERSIFY &#183; FIT</text>
  <line class="hair" x1="40" y1="542" x2="1360" y2="542"/>

  <!-- Card 04 — MMR Diversity -->
  <g transform="translate(80,560)">
    <rect class="card" width="360" height="200" rx="2"/>
    <text class="accent" x="20" y="80" font-size="64" font-family="Georgia, serif">04</text>
    <line class="hair" x1="20" y1="96" x2="340" y2="96"/>
    <text class="muted sans tag" x="20" y="116">STEP &#183; MMR DIVERSITY</text>
    <text class="ink title" x="20" y="144">Diversity rerank</text>
    <text class="muted mono" x="20" y="164" font-size="11">Maximal Marginal Relevance &#183; &#955;=0.7</text>
    <text class="ink body" x="20" y="186">Eliminate near-duplicate candidates</text>
  </g>
  <text class="ink body" x="100" y="780">while preserving topical coverage.</text>

  <!-- Card 05 — Decay + Boost -->
  <g transform="translate(520,560)">
    <rect class="card" width="360" height="200" rx="2"/>
    <text class="accent" x="20" y="80" font-size="64" font-family="Georgia, serif">05</text>
    <line class="hair" x1="20" y1="96" x2="340" y2="96"/>
    <text class="muted sans tag" x="20" y="116">STEP &#183; DECAY + BOOST</text>
    <text class="ink title" x="20" y="144">Confidence + temporal</text>
    <text class="muted mono" x="20" y="164" font-size="11">recency boost &#183; confidence decay</text>
    <text class="ink body" x="20" y="186">Recent and high-confidence memories</text>
  </g>
  <text class="ink body" x="540" y="780">rise; stale, low-confidence ones fall.</text>

  <!-- Card 06 — Budget Fit -->
  <g transform="translate(960,560)">
    <rect class="card" width="360" height="200" rx="2"/>
    <text class="accent" x="20" y="80" font-size="64" font-family="Georgia, serif">06</text>
    <line class="hair" x1="20" y1="96" x2="340" y2="96"/>
    <text class="muted sans tag" x="20" y="116">STEP &#183; BUDGET FIT</text>
    <text class="ink title" x="20" y="144">Greedy token pack</text>
    <text class="muted mono" x="20" y="164" font-size="11">monotonic by score &#183; budget=2000</text>
    <text class="ink body" x="20" y="186">Pack the top-scoring memories until</text>
  </g>
  <text class="ink body" x="980" y="780">the caller&#8217;s token budget is filled.</text>

  <!-- Sequence flow within Stage B -->
  <line class="flow" x1="440" y1="660" x2="520" y2="660" marker-end="url(#arr)"/>
  <line class="flow" x1="880" y1="660" x2="960" y2="660" marker-end="url(#arr)"/>

  <!-- Output -->
  <line class="flow" x1="700" y1="800" x2="700" y2="836" marker-end="url(#arr)"/>
  <text class="ink mono" x="700" y="858" text-anchor="middle" font-size="14">List[RetrievalResult] &#8804; budget</text>

  <!-- Bottom rule -->
  <line class="rule" x1="40" y1="870" x2="1360" y2="870"/>
</svg>
